<svg width="30" height="35" viewBox="0 0 30 35" fill="none" xmlns="http://www.w3.org/2000/svg">
<path d="M21.2413 10.3667C20.0093 10.9889 18.7524 11.6462 17.6312 12.6203C16.2487 13.8263 15.3323 15.3209 14.8322 17.1876L14.4928 17.0959C14.9929 15.2292 14.9454 13.4756 14.3537 11.7413C13.8468 10.2648 13.0255 9.01131 12.2301 7.79851C11.867 7.24415 11.5174 6.71015 11.2119 6.17389C13.5572 6.78708 15.7441 7.49983 16.8585 8.25784C18.1969 9.17423 19.7163 9.85756 21.2413 10.3667Z" fill="white"/>
<path d="M17.3663 33.2256L4.53223 29.7863C6.05389 29.1335 7.59932 28.4389 9.00219 27.4671C9.40789 27.1843 9.83888 26.9396 10.2897 26.7362L11.4018 26.2384C11.6956 26.1111 12.0243 26.0883 12.3329 26.1739C12.483 26.2142 12.6258 26.2779 12.756 26.3629C12.8828 26.4455 12.9948 26.5487 13.0875 26.6683L13.729 27.5101C14.1172 28.0197 14.4534 28.567 14.7325 29.1437C15.4531 30.6213 16.4057 31.9461 17.3663 33.2256Z" fill="white"/>
<path d="M13.9286 16.9455C13.4648 18.6968 12.6038 20.0963 11.3152 21.2231C10.194 22.2017 8.88847 22.8602 7.62588 23.4971C5.38242 24.6285 3.25548 25.701 2.26781 28.4853C2.20161 28.6652 2.06717 28.8117 1.89365 28.8932C1.72013 28.9746 1.52149 28.9844 1.3408 28.9204C1.16011 28.8564 1.01192 28.7238 0.928351 28.5513C0.844783 28.3787 0.832568 28.1802 0.894355 27.9988C1.36523 26.6321 2.18919 25.4144 3.28263 24.469C4.4038 23.4915 5.70825 22.833 6.97197 22.1961C9.37835 20.9821 11.6524 19.8361 12.528 16.5688C13.4037 13.3014 12.0019 11.1711 10.5233 8.91631C9.83315 7.86302 9.12266 6.77919 8.63505 5.56072C8.57396 5.41025 8.52191 5.25752 8.46422 5.10818C7.99078 3.74074 7.88696 2.2725 8.16328 0.852046C8.19853 0.661962 8.30785 0.49367 8.46719 0.384191C8.62653 0.274711 8.82284 0.233013 9.01292 0.268269C9.203 0.303526 9.37129 0.412848 9.48077 0.572187C9.59025 0.731526 9.63195 0.92783 9.5967 1.11791C9.24145 3.04121 9.69173 4.56174 10.4362 5.98272C10.8174 6.70904 11.2756 7.40822 11.7429 8.11984C12.5178 9.29983 13.3188 10.5206 13.8042 11.9302C14.3563 13.5537 14.3981 15.1942 13.9286 16.9455Z" fill="white"/>
<path d="M21.1573 33.4315C21.1181 33.6176 21.0076 33.781 20.8496 33.8868C20.6915 33.9926 20.4984 34.0324 20.3114 33.9977C20.1244 33.963 19.9583 33.8565 19.8488 33.701C19.7392 33.5456 19.6948 33.3534 19.725 33.1656C20.2624 30.2592 18.9557 28.2669 17.5754 26.166C16.8004 24.9837 15.9983 23.7607 15.5164 22.3522C14.9609 20.7298 14.919 19.0894 15.3885 17.3381C15.858 15.5867 16.7145 14.1872 18.0065 13.0593C19.1276 12.0818 20.4343 11.4234 21.6958 10.7864L22.0352 10.6178C24.1542 9.54532 26.1216 8.44452 27.0607 5.79829C27.1247 5.62264 27.2538 5.47833 27.4213 5.39522C27.5888 5.31211 27.7818 5.29656 27.9604 5.35179C28.139 5.40702 28.2896 5.5288 28.3809 5.69193C28.4722 5.85506 28.4974 6.04706 28.4511 6.2282L28.4341 6.28364C27.963 7.64986 27.1395 8.86748 26.047 9.81345C25.4537 10.3213 24.8118 10.7692 24.1305 11.1507C23.5455 11.4901 22.9471 11.7899 22.3576 12.0875C19.9501 13.3014 17.6761 14.4475 16.8004 17.7148C15.9248 20.9821 17.322 23.1125 18.7995 25.3672C19.5745 26.5506 20.3755 27.7725 20.8575 29.181C21.3301 30.5467 21.4335 32.013 21.1573 33.4315Z" fill="white"/>
<path d="M8.00854 1.19483L25.8624 5.97817L28.3966 6.65698C29.2021 6.87307 29.5166 5.70439 28.71 5.4883L10.8618 0.704953L8.32758 0.0261434C7.52206 -0.188813 7.20754 0.979871 8.01419 1.19596L8.00854 1.19483Z" fill="white"/>
<path d="M0.471707 29.3247L18.3289 34.108L20.8632 34.7868C21.6687 35.0018 21.9832 33.8331 21.1765 33.617L3.31931 28.8348L0.785091 28.156C-0.0204297 27.9433 -0.338339 29.1086 0.471707 29.3247Z" fill="white"/>
</svg>
