<svg width="90" height="89" viewBox="0 0 90 89" fill="none" xmlns="http://www.w3.org/2000/svg">
<g filter="url(#filter0_d_167_4630)">
<rect x="17.6391" y="13.0088" width="54.4452" height="54.4452" rx="17.0141" fill="#DBF9FF"/>
</g>
<mask id="mask0_167_4630" style="mask-type:alpha" maskUnits="userSpaceOnUse" x="26" y="22" width="37" height="37">
<rect x="26.9969" y="22.3666" width="35.7297" height="35.7297" fill="#D9D9D9"/>
</mask>
<g mask="url(#mask0_167_4630)">
<path d="M43.373 41.7202C43.7948 41.7202 44.1484 41.5775 44.4337 41.2922C44.7191 41.0068 44.8617 40.6533 44.8617 40.2315C44.8617 39.8096 44.7191 39.4561 44.4337 39.1707C44.1484 38.8854 43.7948 38.7427 43.373 38.7427C42.9512 38.7427 42.5976 38.8854 42.3123 39.1707C42.0269 39.4561 41.8843 39.8096 41.8843 40.2315C41.8843 40.6533 42.0269 41.0068 42.3123 41.2922C42.5976 41.5775 42.9512 41.7202 43.373 41.7202ZM37.4181 53.6301V50.6526L46.3505 49.1639V32.6017C46.3505 32.2295 46.2388 31.8945 46.0155 31.5968C45.7922 31.299 45.5069 31.1253 45.1595 31.0757L37.4181 29.8103V26.8328L45.6061 28.1727C46.6978 28.3712 47.5911 28.8798 48.2858 29.6986C48.9806 30.5174 49.3279 31.4727 49.3279 32.5645V49.0894C49.3279 49.809 49.0922 50.4479 48.6208 51.0062C48.1494 51.5645 47.5539 51.9056 46.8343 52.0297L37.4181 53.6301ZM37.4181 50.6526H52.3054V29.8103H37.4181V50.6526ZM32.9518 53.6301C32.53 53.6301 32.1765 53.4874 31.8911 53.2021C31.6058 52.9167 31.4631 52.5632 31.4631 52.1413C31.4631 51.7195 31.6058 51.366 31.8911 51.0806C32.1765 50.7953 32.53 50.6526 32.9518 50.6526H34.4406V29.8103C34.4406 28.9915 34.7321 28.2905 35.3152 27.7075C35.8983 27.1244 36.5992 26.8328 37.4181 26.8328H52.3054C53.1242 26.8328 53.8252 27.1244 54.4083 27.7075C54.9913 28.2905 55.2829 28.9915 55.2829 29.8103V50.6526H56.7716C57.1934 50.6526 57.547 50.7953 57.8324 51.0806C58.1177 51.366 58.2604 51.7195 58.2604 52.1413C58.2604 52.5632 58.1177 52.9167 57.8324 53.2021C57.547 53.4874 57.1934 53.6301 56.7716 53.6301H32.9518Z" fill="#5AC2D6"/>
</g>
<defs>
<filter id="filter0_d_167_4630" x="0.624996" y="0.248219" width="88.4735" height="88.4735" filterUnits="userSpaceOnUse" color-interpolation-filters="sRGB">
<feFlood flood-opacity="0" result="BackgroundImageFix"/>
<feColorMatrix in="SourceAlpha" type="matrix" values="0 0 0 0 0 0 0 0 0 0 0 0 0 0 0 0 0 0 127 0" result="hardAlpha"/>
<feOffset dy="4.25353"/>
<feGaussianBlur stdDeviation="8.50707"/>
<feComposite in2="hardAlpha" operator="out"/>
<feColorMatrix type="matrix" values="0 0 0 0 0.352941 0 0 0 0 0.760784 0 0 0 0 0.839216 0 0 0 0.2 0"/>
<feBlend mode="normal" in2="BackgroundImageFix" result="effect1_dropShadow_167_4630"/>
<feBlend mode="normal" in="SourceGraphic" in2="effect1_dropShadow_167_4630" result="shape"/>
</filter>
</defs>
</svg>
