<svg width="18" height="18" viewBox="0 0 18 18" fill="none" xmlns="http://www.w3.org/2000/svg">
<path d="M7.75 10.25H1.5C1.14583 10.25 0.848958 10.1302 0.609375 9.89062C0.369792 9.65104 0.25 9.35417 0.25 9C0.25 8.64583 0.369792 8.34896 0.609375 8.10938C0.848958 7.86979 1.14583 7.75 1.5 7.75H7.75V1.5C7.75 1.14583 7.86979 0.848958 8.10938 0.609375C8.34896 0.369792 8.64583 0.25 9 0.25C9.35417 0.25 9.65104 0.369792 9.89062 0.609375C10.1302 0.848958 10.25 1.14583 10.25 1.5V7.75H16.5C16.8542 7.75 17.151 7.86979 17.3906 8.10938C17.6302 8.34896 17.75 8.64583 17.75 9C17.75 9.35417 17.6302 9.65104 17.3906 9.89062C17.151 10.1302 16.8542 10.25 16.5 10.25H10.25V16.5C10.25 16.8542 10.1302 17.151 9.89062 17.3906C9.65104 17.6302 9.35417 17.75 9 17.75C8.64583 17.75 8.34896 17.6302 8.10938 17.3906C7.86979 17.151 7.75 16.8542 7.75 16.5V10.25Z" fill="white"/>
</svg>
    