<svg width="17" height="17" viewBox="0 0 17 17" fill="none" xmlns="http://www.w3.org/2000/svg">
<path d="M3.81755 9.53489L8.92171 14.6391C9.13005 14.8474 9.22987 15.0904 9.22119 15.3682C9.21251 15.646 9.104 15.8891 8.89567 16.0974C8.68734 16.2884 8.44428 16.3882 8.1665 16.3969C7.88873 16.4056 7.64567 16.3057 7.43734 16.0974L0.562337 9.22239C0.458171 9.11823 0.384386 9.00538 0.340983 8.88385C0.29758 8.76232 0.275879 8.63212 0.275879 8.49323C0.275879 8.35434 0.29758 8.22413 0.340983 8.1026C0.384386 7.98107 0.458171 7.86823 0.562337 7.76406L7.43734 0.889058C7.62831 0.698086 7.86703 0.6026 8.15348 0.6026C8.43994 0.6026 8.68734 0.698086 8.89567 0.889058C9.104 1.09739 9.20817 1.34479 9.20817 1.63125C9.20817 1.9177 9.104 2.1651 8.89567 2.37343L3.81755 7.45156H15.4582C15.7533 7.45156 16.0007 7.55139 16.2004 7.75104C16.4 7.95069 16.4998 8.19809 16.4998 8.49323C16.4998 8.78837 16.4 9.03576 16.2004 9.23541C16.0007 9.43507 15.7533 9.53489 15.4582 9.53489H3.81755Z" fill="white"/>
</svg>
