<svg width="32" height="36" viewBox="0 0 32 36" fill="none" xmlns="http://www.w3.org/2000/svg">
<path d="M5.5 35.5C4.04167 35.5 2.80208 34.9896 1.78125 33.9688C0.760417 32.9479 0.25 31.7083 0.25 30.25V5.75C0.25 4.29167 0.760417 3.05208 1.78125 2.03125C2.80208 1.01042 4.04167 0.5 5.5 0.5H24.75V28.5H5.5C5.00417 28.5 4.58854 28.6677 4.25313 29.0031C3.91771 29.3385 3.75 29.7542 3.75 30.25C3.75 30.7458 3.91771 31.1615 4.25313 31.4969C4.58854 31.8323 5.00417 32 5.5 32H28.25V4H31.75V35.5H5.5ZM10.75 25H21.25V4H10.75V25ZM7.25 25V4H5.5C5.00417 4 4.58854 4.16771 4.25313 4.50313C3.91771 4.83854 3.75 5.25417 3.75 5.75V25.3062C4.04167 25.2188 4.32604 25.1458 4.60313 25.0875C4.88021 25.0292 5.17917 25 5.5 25H7.25Z" fill="#1160F1"/>
</svg>
