<svg width="33" height="32" viewBox="0 0 33 32" fill="none" xmlns="http://www.w3.org/2000/svg">
<path d="M6.77555 26.7707L3.02827 30.5179C2.51234 31.0339 1.92174 31.1493 1.25646 30.8642C0.591184 30.579 0.258545 30.0699 0.258545 29.3367V3.96114C0.258545 3.06505 0.577607 2.29795 1.21573 1.65982C1.85385 1.0217 2.62096 0.702637 3.51705 0.702637H29.5851C30.4812 0.702637 31.2483 1.0217 31.8864 1.65982C32.5245 2.29795 32.8436 3.06505 32.8436 3.96114V23.5122C32.8436 24.4082 32.5245 25.1754 31.8864 25.8135C31.2483 26.4516 30.4812 26.7707 29.5851 26.7707H6.77555ZM5.39069 23.5122H29.5851V3.96114H3.51705V25.3451L5.39069 23.5122Z" fill="white"/>
</svg>
