<svg width="11" height="11" viewBox="0 0 11 11" fill="none" xmlns="http://www.w3.org/2000/svg">
<path d="M5.49961 6.55L1.82461 10.225C1.68711 10.3625 1.51211 10.4312 1.29961 10.4312C1.08711 10.4312 0.912109 10.3625 0.774609 10.225C0.637109 10.0875 0.568359 9.9125 0.568359 9.7C0.568359 9.4875 0.637109 9.3125 0.774609 9.175L4.44961 5.5L0.774609 1.825C0.637109 1.6875 0.568359 1.5125 0.568359 1.3C0.568359 1.0875 0.637109 0.912498 0.774609 0.774998C0.912109 0.637498 1.08711 0.568748 1.29961 0.568748C1.51211 0.568748 1.68711 0.637498 1.82461 0.774998L5.49961 4.45L9.17461 0.774998C9.31211 0.637498 9.48711 0.568748 9.69961 0.568748C9.91211 0.568748 10.0871 0.637498 10.2246 0.774998C10.3621 0.912498 10.4309 1.0875 10.4309 1.3C10.4309 1.5125 10.3621 1.6875 10.2246 1.825L6.54961 5.5L10.2246 9.175C10.3621 9.3125 10.4309 9.4875 10.4309 9.7C10.4309 9.9125 10.3621 10.0875 10.2246 10.225C10.0871 10.3625 9.91211 10.4312 9.69961 10.4312C9.48711 10.4312 9.31211 10.3625 9.17461 10.225L5.49961 6.55Z" fill="#1160F1" fill-opacity="0.7"/>
</svg>
