<svg width="90" height="89" viewBox="0 0 90 89" fill="none" xmlns="http://www.w3.org/2000/svg">
<g filter="url(#filter0_d_167_4652)">
<rect x="17.6391" y="12.9982" width="54.4452" height="54.4452" rx="17.0141" fill="#CCFFF6"/>
</g>
<mask id="mask0_167_4652" style="mask-type:alpha" maskUnits="userSpaceOnUse" x="26" y="22" width="37" height="37">
<rect x="26.9969" y="22.356" width="35.7297" height="35.7297" fill="#D9D9D9"/>
</mask>
<g mask="url(#mask0_167_4652)">
<path d="M44.8618 55.1082C44.0429 55.1082 43.342 54.8167 42.7589 54.2336C42.1758 53.6505 41.8843 52.9496 41.8843 52.1308H47.8392C47.8392 52.9496 47.5477 53.6505 46.9646 54.2336C46.3815 54.8167 45.6806 55.1082 44.8618 55.1082ZM40.3955 50.642C39.9737 50.642 39.6202 50.4993 39.3348 50.214C39.0495 49.9287 38.9068 49.5751 38.9068 49.1533C38.9068 48.7315 39.0495 48.3779 39.3348 48.0926C39.6202 47.8072 39.9737 47.6645 40.3955 47.6645H49.328C49.7498 47.6645 50.1033 47.8072 50.3887 48.0926C50.674 48.3779 50.8167 48.7315 50.8167 49.1533C50.8167 49.5751 50.674 49.9287 50.3887 50.214C50.1033 50.4993 49.7498 50.642 49.328 50.642H40.3955ZM39.279 46.1758C37.5669 45.1585 36.2085 43.7938 35.2036 42.0818C34.1987 40.3697 33.6962 38.5088 33.6962 36.499C33.6962 33.3975 34.7818 30.7612 36.9528 28.5901C39.1239 26.419 41.7602 25.3335 44.8618 25.3335C47.9633 25.3335 50.5996 26.419 52.7707 28.5901C54.9417 30.7612 56.0273 33.3975 56.0273 36.499C56.0273 38.5088 55.5248 40.3697 54.5199 42.0818C53.515 43.7938 52.1566 45.1585 50.4445 46.1758H39.279ZM40.1722 43.1983H49.5513C50.6678 42.4043 51.5301 41.4243 52.138 40.2581C52.7459 39.0919 53.0498 37.8389 53.0498 36.499C53.0498 34.2163 52.2558 32.2809 50.6678 30.6929C49.0798 29.105 47.1445 28.311 44.8618 28.311C42.579 28.311 40.6437 29.105 39.0557 30.6929C37.4677 32.2809 36.6737 34.2163 36.6737 36.499C36.6737 37.8389 36.9777 39.0919 37.5856 40.2581C38.1935 41.4243 39.0557 42.4043 40.1722 43.1983Z" fill="#16D0AE"/>
</g>
<defs>
<filter id="filter0_d_167_4652" x="0.624996" y="0.23763" width="88.4735" height="88.4735" filterUnits="userSpaceOnUse" color-interpolation-filters="sRGB">
<feFlood flood-opacity="0" result="BackgroundImageFix"/>
<feColorMatrix in="SourceAlpha" type="matrix" values="0 0 0 0 0 0 0 0 0 0 0 0 0 0 0 0 0 0 127 0" result="hardAlpha"/>
<feOffset dy="4.25353"/>
<feGaussianBlur stdDeviation="8.50707"/>
<feComposite in2="hardAlpha" operator="out"/>
<feColorMatrix type="matrix" values="0 0 0 0 0.0862745 0 0 0 0 0.815686 0 0 0 0 0.682353 0 0 0 0.2 0"/>
<feBlend mode="normal" in2="BackgroundImageFix" result="effect1_dropShadow_167_4652"/>
<feBlend mode="normal" in="SourceGraphic" in2="effect1_dropShadow_167_4652" result="shape"/>
</filter>
</defs>
</svg>
