<svg width="14" height="14" viewBox="0 0 14 14" fill="none" xmlns="http://www.w3.org/2000/svg">
<path d="M3.66668 11.5C3.47779 11.5 3.31945 11.4361 3.19168 11.3083C3.0639 11.1806 3.00001 11.0222 3.00001 10.8333V9.5H11.6667V3.5H13C13.1889 3.5 13.3472 3.56389 13.475 3.69167C13.6028 3.81944 13.6667 3.97778 13.6667 4.16667V12.55C13.6667 12.85 13.5306 13.0583 13.2583 13.175C12.9861 13.2917 12.7445 13.2444 12.5333 13.0333L11 11.5H3.66668ZM3.00001 8.16667L1.46668 9.7C1.25557 9.91111 1.0139 9.95833 0.741677 9.84166C0.469455 9.725 0.333344 9.51666 0.333344 9.21666V1.5C0.333344 1.31111 0.397232 1.15278 0.52501 1.025C0.652788 0.897221 0.811121 0.833332 1.00001 0.833332H9.66668C9.85557 0.833332 10.0139 0.897221 10.1417 1.025C10.2695 1.15278 10.3333 1.31111 10.3333 1.5V7.5C10.3333 7.68889 10.2695 7.84722 10.1417 7.975C10.0139 8.10278 9.85557 8.16667 9.66668 8.16667H3.00001ZM9.00001 6.83333V2.16667H1.66668V6.83333H9.00001Z" fill="#1160F1"/>
</svg>
