<svg width="12" height="13" viewBox="0 0 12 13" fill="none" xmlns="http://www.w3.org/2000/svg">
<path d="M1.9999 11.1667H3.9999V7.83333C3.9999 7.64444 4.06379 7.48611 4.19157 7.35833C4.31934 7.23055 4.47768 7.16666 4.66656 7.16666H7.33323C7.52212 7.16666 7.68045 7.23055 7.80823 7.35833C7.93601 7.48611 7.9999 7.64444 7.9999 7.83333V11.1667H9.9999V5.16666L5.9999 2.16666L1.9999 5.16666V11.1667ZM0.666565 11.1667V5.16666C0.666565 4.95555 0.713787 4.75555 0.808232 4.56666C0.902676 4.37777 1.03323 4.22222 1.1999 4.1L5.1999 1.09999C5.43323 0.922217 5.6999 0.833328 5.9999 0.833328C6.2999 0.833328 6.56657 0.922217 6.7999 1.09999L10.7999 4.1C10.9666 4.22222 11.0971 4.37777 11.1916 4.56666C11.286 4.75555 11.3332 4.95555 11.3332 5.16666V11.1667C11.3332 11.5333 11.2027 11.8472 10.9416 12.1083C10.6805 12.3694 10.3666 12.5 9.9999 12.5H7.33323C7.14434 12.5 6.98601 12.4361 6.85823 12.3083C6.73045 12.1806 6.66656 12.0222 6.66656 11.8333V8.5H5.33323V11.8333C5.33323 12.0222 5.26934 12.1806 5.14157 12.3083C5.01379 12.4361 4.85545 12.5 4.66656 12.5H1.9999C1.63323 12.5 1.31934 12.3694 1.05823 12.1083C0.797121 11.8472 0.666565 11.5333 0.666565 11.1667Z" fill="#1160F1"/>
</svg>
