<svg width="416" height="497" viewBox="0 0 416 497" fill="none" xmlns="http://www.w3.org/2000/svg">
<path d="M302.685 147.746C285.125 156.606 267.145 165.976 251.235 179.846C231.505 197.036 218.505 218.326 211.355 244.926L206.495 243.626C213.625 217.026 212.975 192.066 204.495 167.326C197.285 146.276 185.575 128.416 174.255 111.136C169.075 103.236 164.085 95.626 159.685 87.986C193.175 96.656 224.335 106.886 240.225 117.726C259.295 130.746 280.955 140.476 302.685 147.746Z" fill="white"/>
<path d="M247.505 473.456L64.625 424.456C86.305 415.146 108.335 405.256 128.315 391.406C134.083 387.373 140.212 383.885 146.625 380.986L162.505 373.906C166.694 372.096 171.375 371.768 175.775 372.976C177.904 373.552 179.929 374.46 181.775 375.666C183.584 376.845 185.18 378.323 186.495 380.036L195.645 392.036C201.179 399.298 205.97 407.097 209.945 415.316C220.205 436.346 233.835 455.226 247.505 473.456Z" fill="white"/>
<path d="M198.505 241.476C191.825 266.476 179.615 286.376 161.205 302.476C145.205 316.406 126.615 325.796 108.625 334.866C76.6247 350.976 46.3547 366.266 32.2747 405.946C31.3517 408.546 29.4336 410.674 26.9421 411.86C24.4507 413.046 21.5901 413.194 18.9897 412.271C16.3892 411.348 14.2619 409.43 13.0758 406.939C11.8896 404.447 11.7417 401.587 12.6647 398.986C19.37 379.515 31.0988 362.159 46.6647 348.676C62.6647 334.736 81.2347 325.366 99.2347 316.286C133.535 298.996 165.935 282.656 178.405 236.096C190.875 189.536 170.995 159.186 149.935 127.096C140.105 112.096 129.935 96.636 123.035 79.276C122.165 77.136 121.365 74.966 120.605 72.756C113.861 53.2973 112.378 32.4023 116.305 12.186C116.809 9.47686 118.368 7.07881 120.64 5.51945C122.912 3.96008 125.71 3.36713 128.42 3.87104C131.129 4.37495 133.527 5.93445 135.086 8.20645C136.646 10.4785 137.239 13.2769 136.735 15.986C131.675 43.366 138.095 65.056 148.735 85.266C154.175 95.616 160.735 105.586 167.345 115.726C178.365 132.526 189.775 149.986 196.655 169.986C204.565 193.146 205.165 216.516 198.505 241.476Z" fill="white"/>
<path d="M301.505 476.396C300.978 479.079 299.414 481.446 297.152 482.983C294.89 484.519 292.113 485.101 289.424 484.602C286.736 484.103 284.353 482.563 282.793 480.316C281.234 478.07 280.623 475.3 281.095 472.606C288.745 431.196 270.095 402.806 250.515 372.866C239.505 355.986 228.075 338.586 221.205 318.526C213.285 295.406 212.685 272.026 219.375 247.076C226.065 222.126 238.265 202.176 256.695 186.076C272.695 172.136 291.275 162.756 309.265 153.686L314.015 151.286C344.205 135.996 372.235 120.286 385.615 82.606C386.502 80.0689 388.338 77.9746 390.738 76.7639C393.137 75.5532 395.913 75.3205 398.481 76.1146C401.048 76.9087 403.208 78.6679 404.505 81.0219C405.802 83.3759 406.135 86.1412 405.435 88.736C405.365 88.996 405.275 89.266 405.185 89.526C398.48 108.995 386.751 126.347 371.185 139.826C362.728 147.037 353.585 153.401 343.885 158.826C335.505 163.716 327.005 167.986 318.605 172.246C284.305 189.546 251.905 205.886 239.425 252.446C226.945 299.006 246.845 329.356 267.905 361.446C278.905 378.306 290.365 395.726 297.235 415.786C303.971 435.261 305.444 456.169 301.505 476.396Z" fill="white"/>
<path d="M114.125 17.0359L368.505 85.2059L404.625 94.8759C416.095 97.9559 420.625 81.3059 409.085 78.2259L154.705 10.0559L118.585 0.375941C107.115 -2.69406 102.585 13.9559 114.125 17.0359Z" fill="white"/>
<path d="M6.71502 417.876L261.125 486.046L297.245 495.726C308.725 498.796 313.245 482.146 301.705 479.066L47.305 410.896L11.185 401.216C-0.294977 398.146 -4.81498 414.796 6.71502 417.876Z" fill="white"/>
</svg>
