<svg width="261" height="215" viewBox="0 0 261 215" fill="none" xmlns="http://www.w3.org/2000/svg">
<rect width="260.084" height="214.456" rx="8.0273" fill="#212236"/>
<mask id="mask0_167_4816" style="mask-type:alpha" maskUnits="userSpaceOnUse" x="101" y="79" width="57" height="57">
<rect x="101.752" y="79.3943" width="56.1235" height="56.1235" fill="#D9D9D9"/>
</mask>
<g mask="url(#mask0_167_4816)">
<path d="M113.677 125.697C112.391 125.697 111.29 125.308 110.374 124.531C109.458 123.755 109 122.821 109 121.73V93.9663C109 92.8756 109.458 91.9418 110.374 91.1651C111.29 90.3884 112.391 90 113.677 90H146.416C147.702 90 148.803 90.3884 149.719 91.1651C150.635 91.9418 151.093 92.8756 151.093 93.9663V121.73C151.093 122.821 150.635 123.755 149.719 124.531C148.803 125.308 147.702 125.697 146.416 125.697H113.677ZM116.015 108.989L123.732 102.444C124.2 102.048 124.746 101.849 125.369 101.849C125.993 101.849 126.539 102.048 127.006 102.444L134.723 108.989L142.44 102.444C142.908 102.048 143.454 101.849 144.077 101.849C144.701 101.849 145.246 102.048 145.714 102.444L146.416 103.039V93.9663H113.677V107.005L116.015 108.989ZM113.677 121.73H146.416V108.642L144.077 106.658L136.36 113.203C135.892 113.599 135.347 113.798 134.723 113.798C134.1 113.798 133.554 113.599 133.086 113.203L125.369 106.658L117.652 113.203C117.185 113.599 116.639 113.798 116.015 113.798C115.392 113.798 114.846 113.599 114.378 113.203L113.677 112.608V121.73ZM113.677 121.73V108.642V112.608V93.9663V121.73Z" fill="white" fill-opacity="0.5"/>
</g>
</svg>
