<svg width="90" height="89" viewBox="0 0 90 89" fill="none" xmlns="http://www.w3.org/2000/svg">
<g filter="url(#filter0_d_167_4642)">
<rect x="17.6391" y="13.0035" width="54.4452" height="54.4452" rx="17.0141" fill="#BFD6FF"/>
</g>
<mask id="mask0_167_4642" style="mask-type:alpha" maskUnits="userSpaceOnUse" x="30" y="25" width="30" height="31">
<rect x="30.3997" y="25.7641" width="29.4351" height="29.4351" fill="#D9D9D9"/>
</mask>
<g mask="url(#mask0_167_4642)">
<path d="M38.6784 52.7463C37.7585 52.7463 36.9664 52.4346 36.3021 51.8111C35.6378 51.1876 35.3056 50.416 35.3056 49.4961L35.3056 32.387C35.3056 31.6102 35.5458 30.9152 36.0262 30.302C36.5065 29.6887 37.1351 29.3004 37.9118 29.1368L47.1103 27.3278C47.8666 27.1643 48.5412 27.3278 49.134 27.8184C49.7268 28.309 50.0232 28.9426 50.0232 29.7194L50.0232 44.345C50.0232 44.9378 49.8392 45.4641 49.4713 45.9241C49.1033 46.384 48.6332 46.6651 48.0608 46.7673L38.4024 48.6989C38.2185 48.7398 38.0651 48.8369 37.9425 48.9902C37.8199 49.1435 37.7585 49.3122 37.7585 49.4961C37.7585 49.721 37.8505 49.9101 38.0345 50.0634C38.2185 50.2167 38.4331 50.2933 38.6784 50.2933L52.4761 50.2933L52.4761 31.8964C52.4761 31.5489 52.5936 31.2576 52.8287 31.0225C53.0638 30.7875 53.3551 30.6699 53.7026 30.6699C54.0501 30.6699 54.3414 30.7875 54.5764 31.0225C54.8115 31.2576 54.929 31.5489 54.929 31.8964L54.929 50.2933C54.929 50.9679 54.6888 51.5454 54.2085 52.0257C53.7281 52.5061 53.1507 52.7463 52.4761 52.7463L38.6784 52.7463ZM41.4379 45.6021L47.5702 44.4063L47.5702 29.7501L41.4379 30.9459L41.4379 45.6021ZM38.985 46.0927L38.985 31.4365L38.5251 31.5284C38.3002 31.5693 38.1163 31.6664 37.9732 31.8197C37.8301 31.973 37.7585 32.1621 37.7585 32.387L37.7585 46.3993C37.8607 46.3584 37.9681 46.3227 38.0805 46.292C38.1929 46.2613 38.3002 46.2358 38.4024 46.2154L38.985 46.0927Z" fill="#1160F1"/>
</g>
<defs>
<filter id="filter0_d_167_4642" x="0.624996" y="0.242879" width="88.4735" height="88.4735" filterUnits="userSpaceOnUse" color-interpolation-filters="sRGB">
<feFlood flood-opacity="0" result="BackgroundImageFix"/>
<feColorMatrix in="SourceAlpha" type="matrix" values="0 0 0 0 0 0 0 0 0 0 0 0 0 0 0 0 0 0 127 0" result="hardAlpha"/>
<feOffset dy="4.25353"/>
<feGaussianBlur stdDeviation="8.50707"/>
<feComposite in2="hardAlpha" operator="out"/>
<feColorMatrix type="matrix" values="0 0 0 0 0.0666667 0 0 0 0 0.376471 0 0 0 0 0.945098 0 0 0 0.2 0"/>
<feBlend mode="normal" in2="BackgroundImageFix" result="effect1_dropShadow_167_4642"/>
<feBlend mode="normal" in="SourceGraphic" in2="effect1_dropShadow_167_4642" result="shape"/>
</filter>
</defs>
</svg>
