<svg width="34" height="44" viewBox="0 0 34 44" fill="none" xmlns="http://www.w3.org/2000/svg">
<path d="M4.5 43.8335C3.35417 43.8335 2.37326 43.4255 1.55729 42.6095C0.741319 41.7936 0.333333 40.8127 0.333333 39.6668V18.8335C0.333333 17.6877 0.741319 16.7068 1.55729 15.8908C2.37326 15.0748 3.35417 14.6668 4.5 14.6668H6.58333V10.5002C6.58333 7.61822 7.59896 5.16162 9.63021 3.13037C11.6615 1.09912 14.1181 0.0834961 17 0.0834961C19.8819 0.0834961 22.3385 1.09912 24.3698 3.13037C26.401 5.16162 27.4167 7.61822 27.4167 10.5002V14.6668H29.5C30.6458 14.6668 31.6267 15.0748 32.4427 15.8908C33.2587 16.7068 33.6667 17.6877 33.6667 18.8335V39.6668C33.6667 40.8127 33.2587 41.7936 32.4427 42.6095C31.6267 43.4255 30.6458 43.8335 29.5 43.8335H4.5ZM4.5 39.6668H29.5V18.8335H4.5V39.6668ZM17 33.4168C18.1458 33.4168 19.1267 33.0088 19.9427 32.1929C20.7587 31.3769 21.1667 30.396 21.1667 29.2502C21.1667 28.1043 20.7587 27.1234 19.9427 26.3075C19.1267 25.4915 18.1458 25.0835 17 25.0835C15.8542 25.0835 14.8733 25.4915 14.0573 26.3075C13.2413 27.1234 12.8333 28.1043 12.8333 29.2502C12.8333 30.396 13.2413 31.3769 14.0573 32.1929C14.8733 33.0088 15.8542 33.4168 17 33.4168ZM10.75 14.6668H23.25V10.5002C23.25 8.76405 22.6424 7.28836 21.4271 6.07308C20.2118 4.8578 18.7361 4.25016 17 4.25016C15.2639 4.25016 13.7882 4.8578 12.5729 6.07308C11.3576 7.28836 10.75 8.76405 10.75 10.5002V14.6668Z" fill="#212236"/>
</svg>
