<svg width="853" height="505" viewBox="0 0 853 505" fill="none" xmlns="http://www.w3.org/2000/svg">
<g filter="url(#filter0_d_551_513)">
<path d="M821.509 266.359C813.964 266.359 807.514 263.682 802.16 258.327C796.805 252.973 794.128 246.523 794.128 238.978C794.128 231.433 796.805 225.105 802.16 219.994C807.514 214.639 813.964 211.962 821.509 211.962C829.054 211.962 835.504 214.639 840.858 219.994C846.213 225.105 848.89 231.433 848.89 238.978C848.89 246.523 846.213 252.973 840.858 258.327C835.504 263.682 829.054 266.359 821.509 266.359ZM800.699 476.28V295.2H842.318V476.28H800.699Z" fill="#1160F1"/>
<path d="M652.243 480.661C641.047 480.661 630.582 478.592 620.846 474.455C611.354 470.074 603.687 463.746 597.846 455.47C592.248 447.195 589.449 437.338 589.449 425.899C589.449 412.269 592.857 401.195 599.671 392.677C606.486 384.158 615.735 377.952 627.418 374.058C639.1 369.92 652 367.851 666.116 367.851H711.386C711.386 358.116 709.804 350.206 706.64 344.121C703.476 337.793 699.095 333.169 693.497 330.248C687.899 327.084 681.328 325.502 673.783 325.502C664.047 325.502 655.529 327.692 648.227 332.073C640.925 336.454 636.423 343.634 634.719 353.613H593.1C594.317 340.47 598.698 329.274 606.243 320.026C614.031 310.534 623.888 303.354 635.814 298.486C647.74 293.375 660.518 290.819 674.148 290.819C691.672 290.819 706.153 294.105 717.592 300.676C729.275 307.005 738.037 315.888 743.878 327.327C749.963 338.767 753.005 352.031 753.005 367.121V422.248C753.248 428.82 754.83 433.566 757.751 436.486C760.915 439.407 765.783 440.989 772.354 441.232V476.28C762.132 476.28 753.37 475.185 746.069 472.994C738.767 470.804 732.682 467.518 727.815 463.137C723.19 458.756 719.418 453.037 716.497 445.978C710.656 455.714 702.016 463.989 690.576 470.804C679.381 477.375 666.603 480.661 652.243 480.661ZM662.83 447.074C672.322 447.074 680.598 444.883 687.656 440.502C694.957 435.878 700.677 429.793 704.814 422.248C709.195 414.46 711.386 405.941 711.386 396.693V395.597H669.037C662.709 395.597 656.624 396.449 650.783 398.153C644.941 399.857 640.317 402.655 636.91 406.55C633.502 410.2 631.798 415.312 631.798 421.883C631.798 430.645 634.841 437.095 640.925 441.232C647.01 445.126 654.312 447.074 662.83 447.074Z" fill="#1160F1"/>
<path d="M490.781 479.449C479.864 479.449 470.444 477.16 462.52 472.582C454.773 468.004 448.786 461.489 444.56 453.037C440.334 444.41 438.221 434.285 438.221 422.664V345.276H468.067V418.438C468.067 429.355 470.62 438.071 475.726 444.586C481.009 450.924 488.756 454.094 498.969 454.094C509.358 454.094 517.457 450.748 523.268 444.057C529.078 437.366 531.984 428.122 531.984 416.325V345.276H561.829V476.28H532.776L532.248 458.32C527.846 465.011 521.947 470.205 514.552 473.903C507.157 477.601 499.233 479.449 490.781 479.449Z" fill="#1160F1"/>
<path d="M307.18 147.76C289.62 156.62 271.64 165.99 255.73 179.86C236 197.05 223 218.34 215.85 244.94L210.99 243.64C218.12 217.04 217.47 192.08 208.99 167.34C201.78 146.29 190.07 128.43 178.75 111.15C173.57 103.25 168.58 95.64 164.18 88C197.67 96.67 228.83 106.9 244.72 117.74C263.79 130.76 285.45 140.49 307.18 147.76Z" fill="#1160F1"/>
<path d="M252 473.47L69.1201 424.47C90.8001 415.16 112.83 405.27 132.81 391.42C138.578 387.387 144.707 383.899 151.12 381L167 373.92C171.189 372.11 175.87 371.782 180.27 372.99C182.399 373.566 184.424 374.474 186.27 375.68C188.079 376.86 189.675 378.337 190.99 380.05L200.14 392.05C205.674 399.312 210.465 407.111 214.44 415.33C224.7 436.36 238.33 455.24 252 473.47Z" fill="#1160F1"/>
<path d="M203 241.49C196.32 266.49 184.11 286.39 165.7 302.49C149.7 316.42 131.11 325.81 113.12 334.88C81.1198 350.99 50.8498 366.28 36.7698 405.96C35.8468 408.56 33.9287 410.688 31.4372 411.874C28.9458 413.06 26.0852 413.208 23.4848 412.285C20.8844 411.362 18.7571 409.444 17.5709 406.952C16.3847 404.461 16.2369 401.6 17.1598 399C23.8651 379.529 35.5939 362.173 51.1598 348.69C67.1598 334.75 85.7298 325.38 103.73 316.3C138.03 299.01 170.43 282.67 182.9 236.11C195.37 189.55 175.49 159.2 154.43 127.11C144.6 112.11 134.43 96.65 127.53 79.29C126.66 77.15 125.86 74.98 125.1 72.77C118.356 53.3112 116.873 32.4163 120.8 12.2C121.304 9.49084 122.863 7.09279 125.135 5.53342C127.407 3.97406 130.206 3.38111 132.915 3.88502C135.624 4.38893 138.022 5.94842 139.581 8.22043C141.141 10.4924 141.734 13.2908 141.23 16C136.17 43.38 142.59 65.07 153.23 85.28C158.67 95.63 165.23 105.6 171.84 115.74C182.86 132.54 194.27 150 201.15 170C209.06 193.16 209.66 216.53 203 241.49Z" fill="#1160F1"/>
<path d="M306 476.41C305.473 479.093 303.909 481.46 301.647 482.997C299.385 484.533 296.608 485.115 293.92 484.616C291.231 484.117 288.848 482.577 287.288 480.33C285.729 478.084 285.119 475.314 285.59 472.62C293.24 431.21 274.59 402.82 255.01 372.88C244 356 232.57 338.6 225.7 318.54C217.78 295.42 217.18 272.04 223.87 247.09C230.56 222.14 242.76 202.19 261.19 186.09C277.19 172.15 295.77 162.77 313.76 153.7L318.51 151.3C348.7 136.01 376.73 120.3 390.11 82.62C390.997 80.0829 392.833 77.9886 395.233 76.7779C397.633 75.5672 400.408 75.3344 402.976 76.1286C405.544 76.9227 407.703 78.6819 409 81.0359C410.297 83.3899 410.631 86.1552 409.93 88.75C409.86 89.01 409.77 89.28 409.68 89.54C402.975 109.009 391.246 126.361 375.68 139.84C367.224 147.051 358.08 153.415 348.38 158.84C340 163.73 331.5 168 323.1 172.26C288.8 189.56 256.4 205.9 243.92 252.46C231.44 299.02 251.34 329.37 272.4 361.46C283.4 378.32 294.86 395.74 301.73 415.8C308.466 435.275 309.939 456.183 306 476.41Z" fill="#1160F1"/>
<path d="M118.62 17.05L373 85.22L409.12 94.89C420.59 97.97 425.12 81.32 413.58 78.24L159.2 10.07L123.08 0.389979C111.61 -2.68002 107.08 13.97 118.62 17.05Z" fill="#1160F1"/>
<path d="M11.2101 417.89L265.62 486.06L301.74 495.74C313.22 498.81 317.74 482.16 306.2 479.08L51.8001 410.91L15.6801 401.23C4.20014 398.16 -0.319862 414.81 11.2101 417.89Z" fill="#1160F1"/>
</g>
<defs>
<filter id="filter0_d_551_513" x="0.495117" y="0.0140381" width="852.395" height="504.102" filterUnits="userSpaceOnUse" color-interpolation-filters="sRGB">
<feFlood flood-opacity="0" result="BackgroundImageFix"/>
<feColorMatrix in="SourceAlpha" type="matrix" values="0 0 0 0 0 0 0 0 0 0 0 0 0 0 0 0 0 0 127 0" result="hardAlpha"/>
<feOffset dy="4"/>
<feGaussianBlur stdDeviation="2"/>
<feComposite in2="hardAlpha" operator="out"/>
<feColorMatrix type="matrix" values="0 0 0 0 0 0 0 0 0 0 0 0 0 0 0 0 0 0 0.25 0"/>
<feBlend mode="normal" in2="BackgroundImageFix" result="effect1_dropShadow_551_513"/>
<feBlend mode="normal" in="SourceGraphic" in2="effect1_dropShadow_551_513" result="shape"/>
</filter>
</defs>
</svg>
