<svg width="14" height="11" viewBox="0 0 14 11" fill="none" xmlns="http://www.w3.org/2000/svg">
<path d="M1.66668 10.8333C1.30001 10.8333 0.986121 10.7028 0.72501 10.4417C0.463899 10.1806 0.333344 9.86667 0.333344 9.5V1.5C0.333344 1.13333 0.463899 0.819445 0.72501 0.558333C0.986121 0.297222 1.30001 0.166667 1.66668 0.166667H12.3333C12.7 0.166667 13.0139 0.297222 13.275 0.558333C13.5361 0.819445 13.6667 1.13333 13.6667 1.5V9.5C13.6667 9.86667 13.5361 10.1806 13.275 10.4417C13.0139 10.7028 12.7 10.8333 12.3333 10.8333H1.66668ZM12.3333 2.83333L7.35001 5.95C7.29445 5.98333 7.23612 6.00833 7.17501 6.025C7.1139 6.04167 7.05557 6.05 7.00001 6.05C6.94445 6.05 6.88612 6.04167 6.82501 6.025C6.7639 6.00833 6.70557 5.98333 6.65001 5.95L1.66668 2.83333V9.5H12.3333V2.83333ZM7.00001 4.83333L12.3333 1.5H1.66668L7.00001 4.83333ZM1.66668 3V2.01667V2.03333V2.025V3Z" fill="#1160F1"/>
</svg>
