<svg width="17" height="16" viewBox="0 0 17 16" fill="none" xmlns="http://www.w3.org/2000/svg">
<path d="M7.25049 12.5C8.70049 12.5 9.93799 11.9906 10.963 10.9719C11.988 9.95313 12.5005 8.71251 12.5005 7.25001C12.5005 5.80001 11.988 4.56251 10.963 3.53751C9.93799 2.51251 8.70049 2.00001 7.25049 2.00001C5.78799 2.00001 4.54736 2.51251 3.52861 3.53751C2.50986 4.56251 2.00049 5.80001 2.00049 7.25001C2.00049 8.71251 2.50986 9.95313 3.52861 10.9719C4.54736 11.9906 5.78799 12.5 7.25049 12.5ZM7.25049 14C6.31299 14 5.43486 13.8219 4.61611 13.4656C3.79736 13.1094 3.08486 12.6281 2.47861 12.0219C1.87236 11.4156 1.39111 10.7031 1.03486 9.88438C0.678613 9.06563 0.500488 8.18751 0.500488 7.25001C0.500488 6.32501 0.678613 5.45313 1.03486 4.63438C1.39111 3.81563 1.87236 3.10001 2.47861 2.48751C3.08486 1.87501 3.79736 1.39063 4.61611 1.03438C5.43486 0.678133 6.31299 0.500008 7.25049 0.500008C8.17549 0.500008 9.04736 0.678133 9.86611 1.03438C10.6849 1.39063 11.4005 1.87501 12.013 2.48751C12.6255 3.10001 13.1099 3.81563 13.4661 4.63438C13.8224 5.45313 14.0005 6.32501 14.0005 7.25001C14.0005 8.05001 13.8692 8.80626 13.6067 9.51876C13.3442 10.2313 12.9817 10.8813 12.5192 11.4688L16.0768 14.6279C16.2268 14.7779 16.2987 14.9529 16.2925 15.1529C16.2862 15.3529 16.2081 15.5279 16.0581 15.6779C15.9081 15.8154 15.7331 15.8841 15.5331 15.8841C15.3331 15.8841 15.1581 15.8154 15.0081 15.6779L11.4505 12.5375C10.863 13 10.213 13.3594 9.50049 13.6156C8.78799 13.8719 8.03799 14 7.25049 14Z" fill="white"/>
</svg>
