<svg width="42" height="41" viewBox="0 0 42 41" fill="none" xmlns="http://www.w3.org/2000/svg">
<mask id="mask0_494_518" style="mask-type:alpha" maskUnits="userSpaceOnUse" x="0" y="0" width="42" height="41">
<rect x="0.275879" width="41" height="41" fill="#D9D9D9"/>
</mask>
<g mask="url(#mask0_494_518)">
<path d="M20.776 20.5C18.8969 20.5 17.2882 19.8309 15.95 18.4927C14.6118 17.1545 13.9427 15.5458 13.9427 13.6666C13.9427 11.7875 14.6118 10.1788 15.95 8.8406C17.2882 7.50241 18.8969 6.83331 20.776 6.83331C22.6552 6.83331 24.2639 7.50241 25.6021 8.8406C26.9403 10.1788 27.6094 11.7875 27.6094 13.6666C27.6094 15.5458 26.9403 17.1545 25.6021 18.4927C24.2639 19.8309 22.6552 20.5 20.776 20.5ZM7.10938 30.75V29.3833C7.10938 28.4153 7.35851 27.5255 7.85677 26.714C8.35503 25.9026 9.01701 25.2833 9.84271 24.8562C11.608 23.9736 13.4017 23.3116 15.224 22.8703C17.0462 22.429 18.8969 22.2083 20.776 22.2083C22.6552 22.2083 24.5059 22.429 26.3281 22.8703C28.1503 23.3116 29.9441 23.9736 31.7094 24.8562C32.5351 25.2833 33.197 25.9026 33.6953 26.714C34.1936 27.5255 34.4427 28.4153 34.4427 29.3833V30.75C34.4427 31.6896 34.1082 32.4939 33.4391 33.163C32.77 33.8321 31.9656 34.1666 31.026 34.1666H10.526C9.58646 34.1666 8.78212 33.8321 8.11302 33.163C7.44392 32.4939 7.10938 31.6896 7.10938 30.75Z" fill="white"/>
</g>
</svg>
