<svg width="26" height="27" viewBox="0 0 26 27" fill="none" xmlns="http://www.w3.org/2000/svg">
<path d="M25.7463 2.91048L16.5686 25.4937C16.3624 25.9749 16.0058 26.2714 15.4988 26.3831C14.9917 26.4948 14.5492 26.3616 14.1711 25.9835L0.76552 12.578C0.387414 12.1999 0.254217 11.7573 0.36593 11.2503C0.477644 10.7433 0.774113 10.3867 1.25534 10.1804L23.8386 1.00277C24.4573 0.762154 24.9901 0.865273 25.4369 1.31213C25.8838 1.75898 25.9869 2.29176 25.7463 2.91048ZM14.6867 22.3743L21.7504 4.99866L4.37471 12.0624L7.9839 15.6716L15.7179 11.0312L11.0775 18.7651L14.6867 22.3743Z" fill="white"/>
</svg>
