<svg width="8" height="8" viewBox="0 0 8 8" fill="none" xmlns="http://www.w3.org/2000/svg">
<path d="M3.50111 0.412744C3.5904 0.137939 3.97918 0.137938 4.06846 0.412744L4.72233 2.42513C4.76226 2.54803 4.87679 2.63123 5.00601 2.63123H7.12195C7.4109 2.63123 7.53104 3.00098 7.29728 3.17082L5.58544 4.41454C5.4809 4.4905 5.43715 4.62513 5.47708 4.74803L6.13095 6.76041C6.22024 7.03522 5.90571 7.26373 5.67195 7.0939L3.96011 5.85017C3.85557 5.77422 3.71401 5.77422 3.60946 5.85017L1.89763 7.0939C1.66386 7.26373 1.34934 7.03522 1.43863 6.76041L2.09249 4.74803C2.13242 4.62513 2.08868 4.4905 1.98413 4.41454L0.272298 3.17082C0.0385345 3.00098 0.158672 2.63123 0.44762 2.63123H2.56357C2.69279 2.63123 2.80731 2.54803 2.84724 2.42513L3.50111 0.412744Z" fill="#EBBC02"/>
</svg>
