<svg width="46" height="27" viewBox="0 0 46 27" fill="none" xmlns="http://www.w3.org/2000/svg">
<path d="M26.0939 25.1815C25.5193 25.1815 25.0235 25.061 24.6065 24.82C24.1987 24.5791 23.8836 24.2362 23.6612 23.7913C23.4388 23.3372 23.3276 22.8044 23.3276 22.1927V18.1197H24.8984V21.9703C24.8984 22.5449 25.0328 23.0036 25.3015 23.3465C25.5796 23.6801 25.9873 23.8469 26.5248 23.8469C27.0716 23.8469 27.4979 23.6709 27.8037 23.3187C28.1096 22.9665 28.2625 22.48 28.2625 21.8591V18.1197H29.8333V25.0146H28.3042L28.2764 24.0694C28.0447 24.4215 27.7342 24.6949 27.345 24.8895C26.9558 25.0842 26.5387 25.1815 26.0939 25.1815ZM34.5921 25.2452C34.0028 25.2452 33.452 25.1363 32.9395 24.9186C32.4399 24.688 32.0364 24.3549 31.729 23.9194C31.4343 23.4838 31.287 22.965 31.287 22.3629C31.287 21.6455 31.4664 21.0627 31.8251 20.6143C32.1837 20.166 32.6705 19.8393 33.2854 19.6343C33.9003 19.4166 34.5793 19.3077 35.3223 19.3077H37.705C37.705 18.7953 37.6217 18.3789 37.4552 18.0587C37.2886 17.7256 37.058 17.4822 36.7634 17.3285C36.4688 17.162 36.1229 17.0787 35.7258 17.0787C35.2134 17.0787 34.765 17.194 34.3807 17.4246C33.9964 17.6551 33.7594 18.033 33.6697 18.5583H31.4792C31.5432 17.8665 31.7738 17.2772 32.1709 16.7905C32.5809 16.2909 33.0997 15.9129 33.7274 15.6567C34.3551 15.3877 35.0276 15.2532 35.745 15.2532C36.6673 15.2532 37.4295 15.4262 38.0316 15.772C38.6465 16.1051 39.1077 16.5727 39.4151 17.1748C39.7354 17.7768 39.8955 18.475 39.8955 19.2692V22.1708C39.9083 22.5166 39.9916 22.7664 40.1453 22.9202C40.3119 23.0739 40.5681 23.1572 40.9139 23.17V25.0146C40.3759 25.0146 39.9147 24.957 39.5304 24.8417C39.1461 24.7264 38.8259 24.5535 38.5697 24.3229C38.3263 24.0923 38.1277 23.7913 37.974 23.4198C37.6665 23.9322 37.2118 24.3677 36.6097 24.7264C36.0204 25.0723 35.3479 25.2452 34.5921 25.2452ZM35.1493 23.4774C35.6489 23.4774 36.0845 23.3621 36.456 23.1315C36.8403 22.8881 37.1413 22.5679 37.3591 22.1708C37.5897 21.7608 37.705 21.3125 37.705 20.8257V20.768H35.476C35.1429 20.768 34.8227 20.8129 34.5152 20.9026C34.2078 20.9922 33.9644 21.1395 33.785 21.3445C33.6057 21.5367 33.516 21.8057 33.516 22.1516C33.516 22.6127 33.6761 22.9522 33.9964 23.17C34.3166 23.3749 34.701 23.4774 35.1493 23.4774ZM43.5011 13.9658C43.104 13.9658 42.7645 13.8249 42.4827 13.543C42.2009 13.2612 42.06 12.9218 42.06 12.5246C42.06 12.1275 42.2009 11.7944 42.4827 11.5254C42.7645 11.2436 43.104 11.1027 43.5011 11.1027C43.8982 11.1027 44.2377 11.2436 44.5195 11.5254C44.8014 11.7944 44.9423 12.1275 44.9423 12.5246C44.9423 12.9218 44.8014 13.2612 44.5195 13.543C44.2377 13.8249 43.8982 13.9658 43.5011 13.9658ZM42.4058 25.0146V15.4838H44.5964V25.0146H42.4058Z" fill="white"/>
<path d="M16.4301 7.77618C15.5061 8.24286 14.5634 8.73585 13.7225 9.46641C12.6856 10.3709 11.9983 11.4918 11.6233 12.8919L11.3687 12.8231C11.7437 11.4231 11.7081 10.1079 11.2643 8.80712C10.8842 7.69981 10.2682 6.75966 9.67168 5.85006C9.39931 5.43428 9.13712 5.03379 8.90802 4.63159C10.667 5.09149 12.3072 5.62605 13.1429 6.19455C14.1467 6.88185 15.2863 7.39435 16.4301 7.77618Z" fill="white"/>
<path d="M13.5239 24.9202L3.89838 22.3408C5.03963 21.8512 6.19869 21.3302 7.25085 20.6013C7.55512 20.3892 7.87837 20.2057 8.21646 20.0532L9.05054 19.6798C9.27094 19.5843 9.51741 19.5673 9.74887 19.6315C9.86147 19.6616 9.96858 19.7095 10.0662 19.7732C10.1613 19.8351 10.2453 19.9126 10.3148 20.0023L10.7959 20.6336C11.0871 21.0158 11.3392 21.4263 11.5486 21.8588C12.0891 22.967 12.8035 23.9606 13.5239 24.9202Z" fill="white"/>
<path d="M10.9453 12.7102C10.5974 14.0237 9.95168 15.0733 8.98522 15.9184C8.14435 16.6524 7.16516 17.1462 6.21822 17.6239C4.53562 18.4725 2.94042 19.2768 2.19967 21.365C2.15002 21.4999 2.04919 21.6099 1.91905 21.671C1.7889 21.732 1.63993 21.7394 1.50441 21.6914C1.36889 21.6434 1.25775 21.5439 1.19507 21.4145C1.1324 21.2851 1.12324 21.1363 1.16958 21.0002C1.52273 19.9752 2.1407 19.0619 2.96079 18.3528C3.80166 17.6197 4.78 17.1259 5.72778 16.6481C7.53257 15.7377 9.23808 14.8782 9.89483 12.4276C10.5516 9.97715 9.50027 8.3794 8.39126 6.68831C7.87367 5.89835 7.34081 5.08547 6.9751 4.17163C6.92928 4.05877 6.89025 3.94422 6.84697 3.83222C6.49189 2.80664 6.41403 1.70546 6.62127 0.640118C6.64771 0.497555 6.7297 0.371336 6.84921 0.289226C6.96871 0.207117 7.11594 0.175843 7.2585 0.202285C7.40106 0.228728 7.52728 0.310719 7.60939 0.430224C7.6915 0.549728 7.72277 0.696956 7.69633 0.839518C7.4299 2.28199 7.76761 3.42239 8.32593 4.48812C8.61188 5.03287 8.95552 5.55725 9.30596 6.09096C9.88719 6.97596 10.4879 7.8915 10.8519 8.94875C11.266 10.1664 11.2974 11.3967 10.9453 12.7102Z" fill="white"/>
<path d="M16.3673 25.0747C16.3379 25.2142 16.2551 25.3368 16.1365 25.4161C16.018 25.4955 15.8731 25.5253 15.7328 25.4993C15.5926 25.4732 15.4681 25.3934 15.3859 25.2768C15.3037 25.1602 15.2704 25.0161 15.2931 24.8753C15.6961 22.6954 14.7161 21.2012 13.6809 19.6255C13.0997 18.7388 12.4981 17.8216 12.1366 16.7652C11.72 15.5484 11.6886 14.3181 12.0407 13.0046C12.3928 11.6911 13.0352 10.6415 14.0042 9.79549C14.8451 9.06238 15.8251 8.56854 16.7712 8.09083L17.0257 7.9644C18.615 7.16001 20.0906 6.33441 20.7948 4.34974C20.8428 4.218 20.9397 4.10977 21.0653 4.04744C21.1909 3.98511 21.3357 3.97344 21.4696 4.01486C21.6036 4.05628 21.7165 4.14762 21.785 4.26997C21.8535 4.39232 21.8723 4.53632 21.8376 4.67218L21.8249 4.71375C21.4716 5.73841 20.854 6.65163 20.0346 7.36111C19.5896 7.74196 19.1082 8.07791 18.5972 8.36405C18.1585 8.61861 17.7096 8.84346 17.2676 9.06662C15.4619 9.97707 13.7564 10.8366 13.0997 13.2871C12.4429 15.7376 13.4908 17.3354 14.599 19.0265C15.1802 19.914 15.781 20.8304 16.1424 21.8868C16.4969 22.911 16.5745 24.0108 16.3673 25.0747Z" fill="white"/>
<path d="M6.50591 0.897189L19.8963 4.4847L21.797 4.99381C22.4011 5.15587 22.637 4.27936 22.032 4.11729L8.64586 0.529783L6.74519 0.0206757C6.14105 -0.140542 5.90517 0.735971 6.51016 0.898037L6.50591 0.897189Z" fill="white"/>
<path d="M0.853079 21.9945L14.246 25.582L16.1467 26.0911C16.7508 26.2523 16.9867 25.3758 16.3817 25.2138L2.98878 21.6271L1.08812 21.118C0.483976 20.9585 0.245544 21.8324 0.853079 21.9945Z" fill="white"/>
</svg>
