<svg width="62" height="62" viewBox="0 0 62 62" fill="none" xmlns="http://www.w3.org/2000/svg">
<path d="M44.0915 53.7782L18.4768 53.8025C12.8415 53.8076 8.22703 49.2021 8.22063 43.5669L8.19629 17.9521C8.19117 12.3169 12.7967 7.70237 18.4319 7.69597L44.0467 7.67164C49.6819 7.66651 54.2964 12.272 54.3028 17.9073L54.3272 43.522C54.3336 49.1586 49.7268 53.7731 44.0915 53.7782Z" fill="#1160F1"/>
<path d="M44.0915 53.7782L18.4768 53.8025C12.8415 53.8076 8.22703 49.2021 8.22063 43.5669L8.19629 17.9521C8.19117 12.3169 12.7967 7.70237 18.4319 7.69597L44.0467 7.67164C49.6819 7.66651 54.2964 12.272 54.3028 17.9073L54.3272 43.522C54.3336 49.1586 49.7268 53.7731 44.0915 53.7782Z" fill="#1160F1"/>
<path d="M31.2624 39.7028C26.32 39.7028 22.2972 35.6813 22.2972 30.7376C22.2972 25.794 26.32 21.7725 31.2624 21.7725C36.2048 21.7725 40.2276 25.794 40.2276 30.7376C40.2276 35.6813 36.2048 39.7028 31.2624 39.7028ZM31.2624 24.3339C27.7314 24.3339 24.8587 27.2066 24.8587 30.7376C24.8587 34.2686 27.7314 37.1413 31.2624 37.1413C34.7934 37.1413 37.6661 34.2686 37.6661 30.7376C37.6661 27.2066 34.7934 24.3339 31.2624 24.3339Z" fill="white"/>
<path d="M40.8679 23.0534C41.9289 23.0534 42.789 22.1933 42.789 21.1323C42.789 20.0713 41.9289 19.2112 40.8679 19.2112C39.8069 19.2112 38.9468 20.0713 38.9468 21.1323C38.9468 22.1933 39.8069 23.0534 40.8679 23.0534Z" fill="white"/>
<path d="M38.9468 47.3873H23.578C18.6356 47.3873 14.6128 43.3658 14.6128 38.4221V23.0533C14.6128 18.1097 18.6356 14.0881 23.578 14.0881H38.9468C43.8892 14.0881 47.912 18.1097 47.912 23.0533V38.4221C47.912 43.3658 43.8892 47.3873 38.9468 47.3873ZM23.578 16.6496C20.047 16.6496 17.1743 19.5223 17.1743 23.0533V38.4221C17.1743 41.9531 20.047 44.8258 23.578 44.8258H38.9468C42.4778 44.8258 45.3505 41.9531 45.3505 38.4221V23.0533C45.3505 19.5223 42.4778 16.6496 38.9468 16.6496H23.578Z" fill="white"/>
</svg>
